<svg width="130" height="130" viewBox="0 0 130 130" fill="none" xmlns="http://www.w3.org/2000/svg">
<rect width="130" height="130" rx="24" fill="url(#paint0_linear_2432_7034)"/>
<path d="M34.1875 25.1345C22.3685 26.846 14.1329 40.2991 18.2252 51.4724C19.8442 55.9414 23.5164 60.7133 28.5546 61.0721C24.1857 83.3535 41.8377 105.473 65.0264 105.131C86.6112 105.568 103.821 86.0383 102.124 65.1323C101.864 64.1118 101.966 62.9573 101.665 61.6234C101.562 60.9286 101.486 61.0891 102.18 60.9682C107.041 60.4443 111.097 54.9483 112.266 50.1433C112.973 48.2571 112.901 43.4889 112.547 41.6103C111.915 37.9938 110.134 34.5661 107.644 31.6369C102.263 25.3564 93.1334 23.3862 85.3198 25.9577C81.3729 27.3379 78.724 29.2835 75.9165 32.2448C69.2697 30.1689 60.8482 30.1765 54.2005 32.2448C48.9575 26.4599 42.0973 24.0631 34.1875 25.1345ZM40.9711 28.3716C43.9013 28.8048 47.3828 30.4701 49.6258 32.3855C51.8357 34.3434 52.7911 36.1256 55.9412 35.192C61.6487 33.6401 67.4988 33.4711 73.1845 34.9768C76.0789 35.6008 76.8294 35.9208 78.892 33.8732C83.3732 29.3061 89.0713 27.4511 95.2281 28.4093C105.13 29.6139 111.951 40.7334 108.842 50.1442C107.639 53.6295 105.129 57.566 101.048 57.7879C98.5444 57.9502 97.8799 59.4871 98.3717 61.9047C98.8531 64.3317 99.0391 67.8038 98.8399 70.2224C98.1593 79.8437 93.5837 88.4257 86.1902 94.4457C68.7921 108.759 41.9274 101.423 33.7202 80.7575C31.1506 74.7951 30.6625 67.2988 31.9143 60.8106C31.9709 59.0387 31.0864 57.8539 29.0794 57.7888C25.5196 57.7029 22.915 54.2884 21.6038 51.0523C17.0282 38.3951 27.8871 26.1805 40.9711 28.3716Z" fill="white"/>
<path d="M48.0352 67.8643C43.522 69.5758 46.4673 75.9432 50.6086 73.5067C53.5341 71.361 51.4629 67.1686 48.0352 67.8643Z" fill="white"/>
<path d="M80.2487 67.9209C76.0998 69.6513 78.6449 75.4995 82.6531 73.7124C84.122 72.8241 84.5921 71.6262 84.2532 69.9694C83.5952 68.3174 82.0716 67.4781 80.2487 67.9209Z" fill="white"/>
<path fill-rule="evenodd" clip-rule="evenodd" d="M57.7367 74.208C58.3938 71.1305 60.3526 68.9385 63.566 68.0983C65.7628 67.6565 68.5655 68.3674 70.1996 70.1185C71.4344 71.3627 72.0518 72.5229 72.3794 74.2542C72.5295 74.9839 72.5295 85.6975 72.3888 86.5112C71.8035 90.7612 67.0938 93.951 63.0044 92.5831C60.3885 91.7968 58.1342 89.2583 57.7367 86.6047C57.5866 85.7447 57.5961 74.966 57.7367 74.208ZM69.114 75.0689C68.9903 73.4612 67.9198 72.0141 66.0922 71.4109C63.7898 70.6585 61.0399 72.7693 60.9917 75.1161C60.9266 75.1812 60.9266 85.6796 60.9917 85.7447L61.1418 86.5773C62.5153 90.7499 68.2219 90.3958 69.0951 86.044C69.1792 85.4077 69.198 76.0705 69.114 75.0689Z" fill="white"/>
<path d="M60.3197 95.3443C58.8924 95.8002 58.6903 97.7354 59.9827 98.3481C61.63 99.2043 65.3315 99.4601 67.4027 99.1061C69.2425 98.6738 70.5396 98.6974 70.9578 97.3003C71.2457 96.5337 70.4952 95.5878 69.8165 95.3537C69.5267 95.2602 69.3766 95.2602 68.9744 95.3631C67.5896 95.7002 67.3186 95.7653 66.841 95.8682C66.233 95.9994 63.5756 95.9428 62.8648 95.7842C61.9972 95.5944 61.8471 95.5586 60.8068 95.2886C60.7039 95.2602 60.4793 95.2876 60.3197 95.3443Z" fill="white"/>
<defs>
<linearGradient id="paint0_linear_2432_7034" x1="-4.77831e-07" y1="4.33333" x2="128.267" y2="132.6" gradientUnits="userSpaceOnUse">
<stop stop-color="#EB4335"/>
<stop offset="1" stop-color="#EA43CE"/>
</linearGradient>
</defs>
</svg>
