<svg width="35" height="35" viewBox="0 0 35 35" fill="none" xmlns="http://www.w3.org/2000/svg">
<g clip-path="url(#clip0_2063_4344)">
<path d="M34.1622 12.8422C34.1622 8.41437 31.1882 6.64268 27.5195 6.64268C25.9813 6.64268 24.4022 6.97861 23.0822 7.61725C21.3732 6.45099 19.3633 5.75256 17.0811 5.75256C14.7989 5.75256 12.789 6.45099 11.0799 7.61725C9.75994 6.97861 8.18089 6.64268 6.64264 6.64268C2.97401 6.64268 0 8.41437 0 12.8422C0 16.4899 2.01936 18.9316 4.78081 19.6803C4.74 20.1889 4.71628 20.6985 4.71628 21.209C4.71628 26.6456 9.00553 28.4922 12.8592 29.11C13.9012 29.8796 15.4033 30.3664 17.0811 30.3664C18.7588 30.3664 20.261 29.8796 21.303 29.1109C25.1576 28.4932 29.4459 26.6465 29.4459 21.21C29.4459 20.6995 29.4222 20.1899 29.3814 19.6812C32.1428 18.9316 34.1622 16.4899 34.1622 12.8422V12.8422Z" fill="#99AAB5"/>
<path d="M9.06511 9.35105C8.76335 9.31973 8.46063 9.2998 8.15982 9.2998C5.22472 9.2998 2.8457 10.7166 2.8457 14.259C2.8457 16.3031 3.64092 17.8726 4.87456 18.8367C5.32341 15.2336 6.7772 11.7993 9.06511 9.35105V9.35105ZM26.0001 9.2998C25.6992 9.2998 25.3956 9.31973 25.0938 9.35105C27.3827 11.7993 28.8355 15.2336 29.2844 18.8377C30.519 17.8726 31.3142 16.304 31.3142 14.259C31.3142 10.7166 28.9352 9.2998 26.0001 9.2998Z" fill="#66757F"/>
<path d="M20.6193 23.5406C20.6193 26.7149 18.9796 27.5196 17.0817 27.5196C15.1838 27.5196 13.5449 26.7149 13.5449 23.5406C13.5449 20.3664 15.1838 17.7928 17.0817 17.7928C18.9796 17.7928 20.6193 20.3664 20.6193 23.5406V23.5406Z" fill="#292F33"/>
<path d="M11.8609 20.2837C12.6471 20.2837 13.2843 19.6464 13.2843 18.8603C13.2843 18.0742 12.6471 17.4369 11.8609 17.4369C11.0748 17.4369 10.4375 18.0742 10.4375 18.8603C10.4375 19.6464 11.0748 20.2837 11.8609 20.2837Z" fill="#292F33"/>
<path d="M22.2994 20.2837C23.0855 20.2837 23.7228 19.6464 23.7228 18.8603C23.7228 18.0742 23.0855 17.4369 22.2994 17.4369C21.5133 17.4369 20.876 18.0742 20.876 18.8603C20.876 19.6464 21.5133 20.2837 22.2994 20.2837Z" fill="#292F33"/>
</g>
<defs>
<clipPath id="clip0_2063_4344">
<rect width="34.1622" height="34.1622" fill="white"/>
</clipPath>
</defs>
</svg>
